<?xml version="1.0" encoding="utf-8"?>
<!-- Generator: Adobe Illustrator 18.1.1, SVG Export Plug-In . SVG Version: 6.00 Build 0)  -->
<svg version="1.1" id="Layer_1" xmlns="http://www.w3.org/2000/svg" xmlns:xlink="http://www.w3.org/1999/xlink" x="0px" y="0px"
	 viewBox="0 0 52.8 41.1" enable-background="new 0 0 52.8 41.1" xml:space="preserve">
<path fill="#FFFFFF" d="M52.8,13.7c0-7.1-5.3-13-11.9-13.4C40.6,0.1,40.3,0,40,0H1.5C0.7,0,0,0.7,0,1.5v22.3
	c0,9.5,7.7,17.3,17.3,17.3h7c8.4,0,15.4-6,17-14C47.7,26.4,52.8,20.7,52.8,13.7z M38.5,23.8c0,7.9-6.4,14.3-14.3,14.3h-7
	C9.4,38.1,3,31.7,3,23.8V3h35.5V23.8z M41.5,24c0-0.1,0-0.1,0-0.2V3.4c4.7,0.8,8.3,5.1,8.3,10.3C49.8,18.9,46.2,23.2,41.5,24z"/>
</svg>
