<?xml version="1.0" encoding="utf-8"?>
<!-- Generator: Adobe Illustrator 18.1.1, SVG Export Plug-In . SVG Version: 6.00 Build 0)  -->
<svg version="1.1" id="Layer_1" xmlns="http://www.w3.org/2000/svg" xmlns:xlink="http://www.w3.org/1999/xlink" x="0px" y="0px"
	 viewBox="0 0 279.8 223.6" enable-background="new 0 0 279.8 223.6" xml:space="preserve">
<path fill="#D1BAA1" d="M0,223.6h279.8V0H0V223.6z M33.9,187.9c0.9-22.4,5.5-63.6,24.6-111.8h112.5c18.2,48.4,23.4,89.2,24.9,111.4
	c0.2,3.1-1.4,5.4-2.3,6.4c-1.8,1.9-4.4,3.1-7.2,3.1h-143c-2.8,0-5.3-1.1-7.1-3C35.4,193.1,33.8,190.9,33.9,187.9z"/>
<path fill="#FFFFFF" d="M269.8,161.6c-1.5-22-6.8-44.2-15.8-65.9c-7.4-17.9-15.6-31.6-21.3-40c-5.9-8.7-15.6-13.9-26.1-13.9h-31.8
	v-23H25.1l0.9,3.9c2.1,9.5,8.6,16.9,18.8,21.5c3.8,1.7,7.3,2.7,10,3.3c-3.5,6.8-6.6,13.5-9.5,20l-1.9,3.9h0.2
	c-21.3,50.3-26.4,93.6-27.3,116.8c-0.3,6.5,2.1,12.8,6.8,17.6c5,5.2,12.2,8.2,19.7,8.2h143c7.6,0,14.9-3.1,19.9-8.5
	c2.8-3,4.7-6.5,5.8-10.2h26.9c8.7,0,17.1-3.6,23-10C267.3,179,270.4,170.3,269.8,161.6z M61.7,48.2h106c2.7,5.6,5.3,11.2,7.6,16.6
	H53.7L61.7,48.2z M33.5,25.2h134.8v16.6H59.8C58.1,41.6,39.5,39.2,33.5,25.2z M201.1,201.1c-3.8,4.1-9.4,6.4-15.2,6.4h-143
	c-5.8,0-11.3-2.3-15.1-6.3c-3.4-3.6-5.2-8.2-5-12.9c1-23.2,6.1-66.6,27.9-117.1H178c20.7,50.4,26.4,93.6,28,116.5
	C206.3,192.7,204.5,197.4,201.1,201.1z M184.9,71.3h21.7c0.7,0,1.3,0.3,1.7,0.9c8.7,12.9,29.1,47.5,32.2,91.5
	c0.1,0.8-0.3,1.3-0.6,1.6c-0.3,0.3-0.8,0.6-1.5,0.6h-28.2C206.9,141.8,199.9,108.6,184.9,71.3z M256.7,181c-4.7,5.1-11.4,8-18.3,8
	h-26c0-0.5,0-1,0-1.5c-0.3-4.4-0.7-9.4-1.4-15.1h27.4c3.2,0,5.2-1.7,6.2-2.7c0.9-1,2.5-3.2,2.3-6.4c-3.1-45.5-24.3-81.3-33.2-94.6
	c-1.6-2.3-4.2-3.7-7-3.7h-24.3c-2.3-5.5-4.8-11-7.5-16.6h31.8c8.4,0,16.1,4.1,20.8,11.1c5.5,8.1,13.5,21.5,20.7,38.8
	c8.7,21.1,13.9,42.6,15.3,63.9C263.9,169,261.4,175.9,256.7,181z"/>
<g>
	<path fill="#FFFFFF" d="M126.5,96.5h-23.9c-1.8,0-3.2-1.2-3.2-3s1.4-3,3.2-3h23.9c1.8,0,3.2,1.2,3.2,3S128.2,96.5,126.5,96.5z"/>
	<path fill="#FFFFFF" d="M121.8,114.5h-14.1c-1.8,0-3.2-1.7-3.2-3.5s1.4-3.5,3.2-3.5h14.1c1.8,0,3.2,1.7,3.2,3.5
		S123.5,114.5,121.8,114.5z"/>
	<path fill="#FFFFFF" d="M126.5,131.5h-23.9c-1.8,0-3.2-1.7-3.2-3.5c0-1.8,1.4-3.5,3.2-3.5h23.9c1.8,0,3.2,1.7,3.2,3.5
		C129.7,129.8,128.2,131.5,126.5,131.5z"/>
	<path fill="#FFFFFF" d="M121.8,147.5h-14.1c-1.8,0-3.2-1.2-3.2-3s1.4-3,3.2-3h14.1c1.8,0,3.2,1.2,3.2,3S123.5,147.5,121.8,147.5z"
		/>
	<path fill="#FFFFFF" d="M126.5,165.5h-23.9c-1.8,0-3.2-1.2-3.2-3s1.4-3,3.2-3h23.9c1.8,0,3.2,1.2,3.2,3S128.2,165.5,126.5,165.5z"
		/>
	<path fill="#FFFFFF" d="M121.8,182.5h-14.1c-1.8,0-3.2-1.2-3.2-3s1.4-3,3.2-3h14.1c1.8,0,3.2,1.2,3.2,3S123.5,182.5,121.8,182.5z"
		/>
</g>
</svg>
