<?xml version="1.0" encoding="utf-8"?>
<!-- Generator: Adobe Illustrator 18.1.1, SVG Export Plug-In . SVG Version: 6.00 Build 0)  -->
<svg version="1.1" id="Layer_1" xmlns="http://www.w3.org/2000/svg" xmlns:xlink="http://www.w3.org/1999/xlink" x="0px" y="0px"
	 viewBox="0 0 68.7 53.2" enable-background="new 0 0 68.7 53.2" xml:space="preserve">
<path fill="#FFFFFF" d="M68.7,38.6c-0.4-5.9-1.8-11.9-4.3-17.7c-2-4.8-4.2-8.5-5.7-10.7c-1.7-2.5-4.5-4-7.5-4h-7.8V1.5
	c0-0.8-0.7-1.5-1.5-1.5H4.1C3.6,0,3.2,0.2,2.9,0.6C2.6,0.9,2.5,1.4,2.6,1.8C3.6,6.3,7.5,8,10,8.7C2,24.5,0.3,38.5,0,45.6
	c-0.1,1.9,0.6,3.7,2,5.2c1.5,1.5,3.5,2.4,5.7,2.4h38c2.2,0,4.3-0.9,5.8-2.5c0.7-0.7,1.2-1.6,1.5-2.5h6.7c2.5,0,4.9-1,6.6-2.9
	C68,43.5,68.8,41.1,68.7,38.6z M6.3,3h34.1v3.1H12.2C11.8,6.1,8.1,5.5,6.3,3z M49.3,48.7c-0.9,1-2.2,1.5-3.6,1.5h-38
	c-1.4,0-2.6-0.5-3.5-1.5c-0.8-0.8-1.2-1.9-1.1-3c0.3-6.2,1.6-17.8,7.6-31.4l2.5-5.3h27.4c7.6,15.7,9.5,29.6,9.9,36.5
	C50.5,46.7,50.1,47.8,49.3,48.7z M64.1,43.3c-1.1,1.2-2.7,1.9-4.4,1.9h-6.3c-0.5-7-2.4-20.6-9.6-36.1h7.4c2,0,3.9,1,5,2.7
	c1.4,2.1,3.6,5.6,5.4,10.2c2.3,5.5,3.6,11.2,4,16.8C65.8,40.4,65.2,42.1,64.1,43.3z"/>
</svg>
